#!OML:ASF H:\Male1\Project 1\Capture day 1\Session 1\Male1.ASF
:FULLY-SPECIFIED
:DEGREES
291
root 1.15703 15.1978 0.381211 163.574 77.7611 -193.824
lowerback 8.95147 0.995881 -6.25391
upperback 5.23079 1.13908 -3.01869
thorax 0.38346 0.604927 0.286825
lowerneck -11.6447 2.45515 5.7239
upperneck 18.1261 2.6123 -0.685507
head 7.59177 1.65803 -0.900001
rclavicle 2.18663e-014 -2.94201e-014
rhumerus -21.2881 0.928215 -79.5569
rradius 74.8353
rwrist -28.0898
rhand -16.8135 -11.792
rfingers 7.12502
rthumb 9.41531 -41.5617
lclavicle 2.18663e-014 -2.94201e-014
lhumerus -20.6795 -1.29018 75.3919
lradius 81.5993
lwrist 20.907
lhand -13.569 30.224
lfingers 7.12502
lthumb 12.5447 59.8274
rfemur -23.5044 2.77298 22.2729
rtibia 64.9945
rfoot -15.4479 -21.2247
rtoes -29.4021
lfemur -3.07101 -7.64781 -27.2055
ltibia 27.5714
lfoot -23.1433 19.1079
ltoes -6.93179
292
root 1.40104 15.1703 0.272523 162.651 77.99 -194.695
lowerback 9.11059 0.998814 -6.4305
upperback 5.26627 1.11962 -2.94636
thorax 0.331556 0.591897 0.458822
lowerneck -11.8577 2.49273 5.82076
upperneck 18.2937 2.65667 -0.822485
head 7.68971 1.67447 -0.953482
rclavicle 1.45113e-014 4.45278e-014
rhumerus -21.4251 0.740976 -79.2848
rradius 75.2869
rwrist -27.078
rhand -17.2335 -11.8255
rfingers 7.12502
rthumb 9.00998 -41.6131
lclavicle 1.45113e-014 4.45278e-014
lhumerus -20.291 -1.32131 75.744
lradius 81.4327
lwrist 21.0582
lhand -13.0158 30.316
lfingers 7.12502
lthumb 13.078 59.886
rfemur -25.1177 3.38686 22.5914
rtibia 62.3878
rfoot -17.7103 -22.4569
rtoes -27.438
lfemur -1.64446 -7.24928 -27.7617
ltibia 27.1435
lfoot -24.1534 19.0546
ltoes -5.45216
293
root 1.64912 15.1532 0.168578 161.21 78.0413 -196.111
lowerback 9.20197 0.972406 -6.81745
upperback 5.372 1.06055 -2.86172
thorax 0.391939 0.552439 0.765917
lowerneck -11.9922 2.54849 5.82117
upperneck 18.1746 2.73823 -0.944093
head 7.67863 1.69585 -0.984406
rclavicle -7.15625e-015 -9.54166e-015
rhumerus -21.453 0.512235 -78.9175
rradius 75.8384
rwrist -26.1134
rhand -17.5696 -12.2991
rfingers 7.12502
rthumb 8.68568 -42.1004
lclavicle -7.15625e-015 -9.54166e-015
lhumerus -19.7033 -1.16088 76.1753
lradius 81.2947
lwrist 21.3532
lhand -12.6578 30.3022
lfingers 7.12502
lthumb 13.423 59.8497
rfemur -26.3787 4.06669 22.6035
rtibia 59.1587
rfoot -18.9771 -23.5998
rtoes -27.5977
lfemur -0.102871 -6.63871 -28.402
ltibia 26.3761
lfoot -24.1847 19.0736
ltoes -5.42919
294
root 1.9006 15.1443 0.0712694 158.445 78.0166 -198.994
lowerback 8.85783 0.984704 -7.63532
upperback 5.65357 1.08712 -2.80733
thorax 0.871216 0.533789 1.28179
lowerneck -11.969 2.59732 6.04393
upperneck 17.6763 2.81726 -1.3389
head 7.52192 1.69696 -1.14499
rclavicle 1.64991e-014 -3.65764e-014
rhumerus -21.3207 0.0342253 -78.4905
rradius 76.5108
rwrist -25.4463
rhand -17.5993 -12.5646
rfingers 7.12502
rthumb 8.65703 -42.3671
lclavicle 1.64991e-014 -3.65764e-014
lhumerus -18.8513 -0.857335 76.6811
lradius 81.2674
lwrist 21.6088
lhand -12.7976 30.6112
lfingers 7.12502
lthumb 13.2883 60.1676
rfemur -27.5012 5.02467 22.1157
rtibia 55.4223
rfoot -19.3046 -24.5208
rtoes -27.6322
lfemur 1.51919 -5.71909 -29.2611
ltibia 25.2245
lfoot -24.2952 19.1787
ltoes -6.26231
295
root 2.15568 15.139 -0.021046 155.507 78.0421 -202.083
lowerback 8.79358 1.08859 -8.2812
upperback 5.68542 1.19787 -2.89091
thorax 0.931348 0.57543 1.54472
lowerneck -11.6873 2.55962 6.31408
upperneck 17.2785 2.7672 -1.57728
head 7.34724 1.66175 -1.27654
rclavicle 2.10712e-014 4.37326e-014
rhumerus -21.7632 -0.738443 -78.2025
rradius 77.3874
rwrist -24.9786
rhand -17.3986 -12.6864
rfingers 7.12502
rthumb 8.8507 -42.4808
lclavicle 2.10712e-014 4.37326e-014
lhumerus -18.3898 -0.899198 77.0426
lradius 81.4502
lwrist 21.6022
lhand -13.1237 31.2622
lfingers 7.12502
lthumb 12.9739 60.8388
rfemur -28.4264 6.25616 21.4822
rtibia 51.3094
rfoot -19.3213 -25.193
rtoes -26.7923
lfemur 3.34479 -4.63339 -30.0745
ltibia 23.6161
lfoot -24.2008 19.2421
ltoes -7.14378
296
root 2.41215 15.1333 -0.113842 153.442 78.0191 -204.226
lowerback 8.81334 1.12229 -8.65559
upperback 5.7274 1.22509 -2.94585
thorax 0.962906 0.581629 1.69227
lowerneck -11.3847 2.55254 6.35136
upperneck 16.8901 2.77369 -1.63586
head 7.16883 1.65536 -1.30512
rclavicle 3.57812e-015 -2.54444e-014
rhumerus -21.9841 -1.29454 -77.9269
rradius 78.1182
rwrist -24.7083
rhand -17.4256 -13.0327
rfingers 7.12502
rthumb 8.8247 -42.8282
lclavicle 3.57812e-015 -2.54444e-014
lhumerus -17.9492 -0.930281 77.4149
lradius 81.7191
lwrist 21.4408
lhand -12.6001 31.5514
lfingers 7.12502
lthumb 13.4787 61.0952
rfemur -29.0304 7.46572 20.9037
rtibia 46.9436
rfoot -19.3282 -25.7184
rtoes -24.7549
lfemur 5.39927 -3.81551 -30.7376
ltibia 21.6783
lfoot -23.8945 19.2352
ltoes -6.82179
297
root 2.67257 15.1233 -0.207767 151.853 77.8851 -205.967
lowerback 8.74232 1.05202 -8.91071
upperback 5.74617 1.12959 -3.02841
thorax 1.03236 0.528079 1.75652
lowerneck -11.357 2.56749 6.44396
upperneck 16.8385 2.80313 -1.78338
head 7.15169 1.66079 -1.36591
rclavicle -1.43125e-014 7.95139e-016
rhumerus -22.0985 -1.59269 -77.7403
rradius 78.7082
rwrist -24.5121
rhand -17.8396 -13.2193
rfingers 7.12502
rthumb 8.42509 -43.0312
lclavicle -1.43125e-014 7.95139e-016
lhumerus -17.4893 -0.913099 77.7202
lradius 82.0196
lwrist 21.418
lhand -11.5164 31.6231
lfingers 7.12502
lthumb 14.523 61.0948
rfemur -29.513 8.68788 20.2197
rtibia 42.566
rfoot -19.8146 -26.1742
rtoes -22.5294
lfemur 7.49695 -3.28728 -31.3939
ltibia 19.5279
lfoot -23.4549 19.3169
ltoes -6.036
298
root 2.94008 15.1077 -0.299371 150.45 77.7152 -207.582
lowerback 8.5407 0.977379 -9.14314
upperback 5.73067 1.03987 -3.10603
thorax 1.13732 0.475589 1.81438
lowerneck -11.3889 2.54898 6.47982
upperneck 17.004 2.78467 -1.84269
head 7.21157 1.65265 -1.39233
rclavicle 5.96354e-016 5.48646e-014
rhumerus -22.5113 -1.94046 -77.5502
rradius 79.4618
rwrist -24.2519
rhand -18.1483 -13.4213
rfingers 7.12502
rthumb 8.12718 -43.245
lclavicle 5.96354e-016 5.48646e-014
lhumerus -17.0374 -1.03385 77.9939
lradius 82.2159
lwrist 21.505
lhand -11.129 31.8229
lfingers 7.12502
lthumb 14.8962 61.2673
rfemur -30.0191 10.2495 19.3763
rtibia 38.4188
rfoot -20.3482 -27.1562
rtoes -22.8968
lfemur 9.66306 -2.73334 -31.9825
ltibia 17.1576
lfoot -22.6015 19.4995
ltoes -7.47461
299
root 3.20987 15.096 -0.388453 149.278 77.5831 -208.871
lowerback 8.33046 0.952309 -9.2989
upperback 5.7547 1.02553 -3.12273
thorax 1.28069 0.45884 1.88741
lowerneck -11.2639 2.51197 6.47606
upperneck 17.1021 2.76187 -1.90856
head 7.22094 1.63979 -1.41652
rclavicle -9.74045e-015 -5.725e-014
rhumerus -22.8514 -2.35995 -77.2678
rradius 80.0622
rwrist -24.0906
rhand -18.2415 -13.8752
rfingers 7.12502
rthumb 8.03721 -43.7024
lclavicle -9.74045e-015 -5.725e-014
lhumerus -16.5008 -1.16194 78.3664
lradius 82.0702
lwrist 21.0503
lhand -10.5998 31.6919
lfingers 7.12502
lthumb 15.4059 61.0979
rfemur -30.2829 12.1395 18.4777
rtibia 34.8454
rfoot -22.2242 -27.4628
rtoes -21.7566
lfemur 12.0118 -2.11725 -32.4083
ltibia 14.6739
lfoot -21.5887 19.5998
ltoes -10.5546
300
root 3.47973 15.0862 -0.475026 148.237 77.5971 -209.947
lowerback 8.17791 0.983154 -9.32901
upperback 5.79209 1.08671 -3.11332
thorax 1.39815 0.482924 1.91191
lowerneck -11.2555 2.46973 6.51547
upperneck 17.3716 2.72702 -2.01042
head 7.30733 1.62374 -1.45943
rclavicle 7.15625e-015 -4.53229e-014
rhumerus -23.0154 -2.77062 -76.9938
rradius 80.3853
rwrist -24.0042
rhand -18.3597 -14.087
rfingers 7.12502
rthumb 7.92321 -43.9185
lclavicle 7.15625e-015 -4.53229e-014
lhumerus -15.9389 -1.27209 78.7442
lradius 81.7557
lwrist 20.2851
lhand -9.7458 31.383
lfingers 7.12502
lthumb 16.2284 60.7238
rfemur -30.4466 14.1171 17.7115
rtibia 32.0325
rfoot -24.7025 -27.8
rtoes -20.3742
lfemur 14.3393 -1.5096 -32.6602
ltibia 12.398
lfoot -20.6202 19.6102
ltoes -13.1108
301
root 3.75779 15.0742 -0.557093 149.151 77.3106 -209.023
lowerback 7.97752 0.827985 -9.1745
upperback 5.84641 0.914772 -3.00631
thorax 1.58091 0.389237 1.95337
lowerneck -11.3004 2.45165 6.48433
upperneck 17.7568 2.718 -1.99803
head 7.43998 1.62816 -1.45029
rclavicle -4.05521e-014 -1.19271e-014
rhumerus -23.174 -3.02276 -76.7435
rradius 80.6213
rwrist -23.9621
rhand -18.5949 -14.0128
rfingers 7.12502
rthumb 7.69618 -43.8528
lclavicle -4.05521e-014 -1.19271e-014
lhumerus -15.4786 -1.41559 79.1009
lradius 81.4614
lwrist 19.9883
lhand -9.66583 31.5557
lfingers 7.12502
lthumb 16.3054 60.8902
rfemur -30.4914 16.1532 17.081
rtibia 30.1593
rfoot -27.2529 -28.0445
rtoes -15.3816
lfemur 16.429 -1.35969 -32.5605
ltibia 10.6791
lfoot -19.5661 19.1848
ltoes -14.6895
